# xmcd
#
# Track frame offsets:
#	150
#	15451
#	25993
#	39451
#	51897
#	60379
#	72966
#	90509
#	100116
#	110743
#	123403
#	141148
#
# Disc length: 2059 seconds
#
# Revision: 0
# Processed by: cddbd v1.5.2PL0 Copyright (c) Steve Scherf et al.
# Submitted via: audiograbber 1.83.01
#
DISCID=9b08090c
DTITLE=Various Artist - #1 Hits of the 60s
DYEAR=2004
DGENRE=Oldies
TTITLE0=The Mamas and the Papas - Monday, Monday
TTITLE1=The Byrds - Mr. Tambourine Man
TTITLE2=Roy Orbison - Oh, Pretty Woman
TTITLE3=The Monkees - I'm a Believer
TTITLE4=The Box Tops - The Letter
TTITLE5=The Beach Boys - Help Me Rhonda
TTITLE6=The McCoys - Hang on Sloopy
TTITLE7=The Buckinghams - Kind of a Drag
TTITLE8=Manfred Mann - Do Wah Diddy Diddy
TTITLE9=Lulu - To Sir With Love
TTITLE10=Bobby Goldsboro - Honey
TTITLE11=The Association - Windy
EXTD=
EXTT0=
EXTT1=
EXTT2=
EXTT3=
EXTT4=
EXTT5=
EXTT6=
EXTT7=
EXTT8=
EXTT9=
EXTT10=
EXTT11=
PLAYORDER=
